<mxfile host="drawio-plugin" modified="2022-01-04T01:36:10.218Z" agent="5.0 (Macintosh; Intel Mac OS X 11_6_2) AppleWebKit/537.36 (KHTML, like Gecko) Chrome/89.0.4389.114 Safari/537.36" etag="DKWF_yQ99zqyYQFDUNO1" version="15.5.4" type="embed" pages="3"><diagram id="23iRSUPoRavnBvh4doch" name="Architecture Overview"><mxGraphModel dx="714" dy="533" grid="1" gridSize="10" guides="1" tooltips="1" connect="1" arrows="1" fold="1" page="1" pageScale="1" pageWidth="827" pageHeight="1169" math="0" shadow="0"><root><mxCell id="0"/><mxCell id="1" parent="0"/><mxCell id="2" value="Actor" style="shape=umlActor;verticalLabelPosition=bottom;verticalAlign=top;html=1;outlineConnect=0;" parent="1" vertex="1"><mxGeometry x="40" y="40" width="30" height="60" as="geometry"/></mxCell><mxCell id="3" value="" style="sketch=0;html=1;dashed=0;whitespace=wrap;fillColor=#2875E2;strokeColor=#ffffff;points=[[0.005,0.63,0],[0.1,0.2,0],[0.9,0.2,0],[0.5,0,0],[0.995,0.63,0],[0.72,0.99,0],[0.5,1,0],[0.28,0.99,0]];shape=mxgraph.kubernetes.icon;prIcon=api" parent="1" vertex="1"><mxGeometry x="200" y="40" width="80" height="80" as="geometry"/></mxCell><mxCell id="4" value="DynamoDB" style="sketch=0;points=[[0,0,0],[0.25,0,0],[0.5,0,0],[0.75,0,0],[1,0,0],[0,1,0],[0.25,1,0],[0.5,1,0],[0.75,1,0],[1,1,0],[0,0.25,0],[0,0.5,0],[0,0.75,0],[1,0.25,0],[1,0.5,0],[1,0.75,0]];outlineConnect=0;fontColor=#FFFFFF;gradientColor=#4D72F3;gradientDirection=north;fillColor=#3334B9;strokeColor=#ffffff;dashed=0;verticalLabelPosition=bottom;verticalAlign=top;align=center;html=1;fontSize=12;fontStyle=0;aspect=fixed;shape=mxgraph.aws4.resourceIcon;resIcon=mxgraph.aws4.dynamodb;" parent="1" vertex="1"><mxGeometry x="600" y="40" width="78" height="78" as="geometry"/></mxCell></root></mxGraphModel></diagram><diagram id="NhN8_hIHOT_OPEfKWiBR" name="API Endpoints"><mxGraphModel dx="714" dy="533" grid="1" gridSize="10" guides="1" tooltips="1" connect="1" arrows="1" fold="1" page="1" pageScale="1" pageWidth="850" pageHeight="1100" math="0" shadow="0"><root><mxCell id="H7LgKXeEv0zN9HQOCf6o-0"/><mxCell id="H7LgKXeEv0zN9HQOCf6o-1" parent="H7LgKXeEv0zN9HQOCf6o-0"/></root></mxGraphModel></diagram><diagram id="mg5Gtt0YvBSPAZR2QAp3" name="DynamoDB Design"><mxGraphModel dx="714" dy="533" grid="1" gridSize="10" guides="1" tooltips="1" connect="1" arrows="1" fold="1" page="1" pageScale="1" pageWidth="850" pageHeight="1100" math="0" shadow="0"><root><mxCell id="HH6wD20WuD-AldguXH93-0"/><mxCell id="HH6wD20WuD-AldguXH93-1" parent="HH6wD20WuD-AldguXH93-0"/><mxCell id="40r226ogi3kPvPkLXAuQ-8" value="" style="shape=internalStorage;whiteSpace=wrap;html=1;backgroundOutline=1;verticalAlign=top;dx=200;dy=40;align=center;" vertex="1" parent="HH6wD20WuD-AldguXH93-1"><mxGeometry x="40" y="40" width="770" height="320" as="geometry"/></mxCell><mxCell id="40r226ogi3kPvPkLXAuQ-14" value="Primary Key" style="text;html=1;strokeColor=none;fillColor=none;align=center;verticalAlign=middle;whiteSpace=wrap;rounded=0;fontSize=14;" vertex="1" parent="HH6wD20WuD-AldguXH93-1"><mxGeometry x="40" y="40" width="200" height="40" as="geometry"/></mxCell><mxCell id="40r226ogi3kPvPkLXAuQ-15" value="&lt;font style=&quot;font-size: 14px&quot;&gt;Attributes&lt;/font&gt;" style="text;html=1;strokeColor=none;fillColor=none;align=center;verticalAlign=middle;whiteSpace=wrap;rounded=0;" vertex="1" parent="HH6wD20WuD-AldguXH93-1"><mxGeometry x="240" y="40" width="570" height="40" as="geometry"/></mxCell><mxCell id="HH6wD20WuD-AldguXH93-3" value="Game ID" style="sketch=0;aspect=fixed;html=1;points=[];align=center;image;fontSize=12;image=img/lib/mscae/Key.svg;fontColor=#FFFFFF;" parent="HH6wD20WuD-AldguXH93-1" vertex="1"><mxGeometry x="80" y="175" width="31" height="50" as="geometry"/></mxCell><mxCell id="HH6wD20WuD-AldguXH93-5" value="Game Type" style="sketch=0;aspect=fixed;pointerEvents=1;shadow=0;dashed=0;html=1;strokeColor=none;labelPosition=center;verticalLabelPosition=bottom;verticalAlign=top;align=center;fillColor=#99FFFF;shape=mxgraph.mscae.enterprise.key_permissions;fontColor=#FFFFFF;" parent="HH6wD20WuD-AldguXH93-1" vertex="1"><mxGeometry x="180" y="175" width="26" height="50" as="geometry"/></mxCell><mxCell id="40r226ogi3kPvPkLXAuQ-19" value="Headshot Id" style="rounded=0;whiteSpace=wrap;html=1;fontSize=14;fillColor=none;align=center;verticalAlign=middle;" vertex="1" parent="HH6wD20WuD-AldguXH93-1"><mxGeometry x="360" y="150" width="100" height="120" as="geometry"/></mxCell><mxCell id="40r226ogi3kPvPkLXAuQ-26" value="" style="rounded=0;whiteSpace=wrap;html=1;fontSize=14;fillColor=none;align=center;verticalAlign=bottom;" vertex="1" parent="HH6wD20WuD-AldguXH93-1"><mxGeometry x="140" y="80" width="100" height="280" as="geometry"/></mxCell><mxCell id="40r226ogi3kPvPkLXAuQ-27" value="Teammate Ids" style="rounded=0;whiteSpace=wrap;html=1;fontSize=14;fillColor=none;align=center;verticalAlign=middle;" vertex="1" parent="HH6wD20WuD-AldguXH93-1"><mxGeometry x="460" y="150" width="110" height="120" as="geometry"/></mxCell><mxCell id="40r226ogi3kPvPkLXAuQ-28" value="Correct Guess" style="rounded=0;whiteSpace=wrap;html=1;fontSize=14;fillColor=none;align=center;verticalAlign=middle;" vertex="1" parent="HH6wD20WuD-AldguXH93-1"><mxGeometry x="570" y="150" width="110" height="120" as="geometry"/></mxCell><mxCell id="40r226ogi3kPvPkLXAuQ-30" value="&lt;font color=&quot;#ffffff&quot; style=&quot;font-size: 14px&quot;&gt;GuessScoreIndex&lt;/font&gt;" style="aspect=fixed;perimeter=ellipsePerimeter;html=1;align=center;shadow=0;dashed=0;fontColor=#4277BB;labelBackgroundColor=#ffffff;fontSize=12;spacingTop=3;image;image=img/lib/ibm/applications/index.svg;fillColor=none;" vertex="1" parent="HH6wD20WuD-AldguXH93-1"><mxGeometry x="485" y="420" width="60" height="60" as="geometry"/></mxCell><mxCell id="40r226ogi3kPvPkLXAuQ-31" value="" style="endArrow=none;html=1;fontSize=14;entryX=0.5;entryY=1;entryDx=0;entryDy=0;exitX=0;exitY=0.5;exitDx=0;exitDy=0;rounded=0;edgeStyle=orthogonalEdgeStyle;" edge="1" parent="HH6wD20WuD-AldguXH93-1" source="40r226ogi3kPvPkLXAuQ-30" target="40r226ogi3kPvPkLXAuQ-18"><mxGeometry width="50" height="50" relative="1" as="geometry"><mxPoint x="510" y="430" as="sourcePoint"/><mxPoint x="340" y="430" as="targetPoint"/></mxGeometry></mxCell><mxCell id="40r226ogi3kPvPkLXAuQ-18" value="Guess Number" style="rounded=0;whiteSpace=wrap;html=1;fontSize=14;fillColor=none;align=center;verticalAlign=middle;strokeColor=#FFD966;" vertex="1" parent="HH6wD20WuD-AldguXH93-1"><mxGeometry x="260" y="150" width="100" height="120" as="geometry"/></mxCell><mxCell id="40r226ogi3kPvPkLXAuQ-32" value="" style="endArrow=none;html=1;rounded=0;fontSize=14;exitX=1;exitY=0.5;exitDx=0;exitDy=0;entryX=0.5;entryY=1;entryDx=0;entryDy=0;edgeStyle=orthogonalEdgeStyle;" edge="1" parent="HH6wD20WuD-AldguXH93-1" source="40r226ogi3kPvPkLXAuQ-30" target="40r226ogi3kPvPkLXAuQ-29"><mxGeometry width="50" height="50" relative="1" as="geometry"><mxPoint x="460" y="300" as="sourcePoint"/><mxPoint x="510" y="250" as="targetPoint"/></mxGeometry></mxCell><mxCell id="40r226ogi3kPvPkLXAuQ-29" value="Score" style="rounded=0;whiteSpace=wrap;html=1;fontSize=14;fillColor=none;align=center;verticalAlign=middle;strokeColor=#FFD966;" vertex="1" parent="HH6wD20WuD-AldguXH93-1"><mxGeometry x="680" y="150" width="110" height="120" as="geometry"/></mxCell></root></mxGraphModel></diagram></mxfile>